<svg width="24" height="24" viewBox="0 0 24 24" fill="none" xmlns="http://www.w3.org/2000/svg">
<path d="M6.41221 12.5214L10.104 10.3889C10.974 9.88697 11.2707 8.77608 10.7687 7.90834C10.2668 7.04061 9.15596 6.74169 8.28822 7.2436L1.90845 10.9265L6.41221 12.5214Z" fill="#EA4335"/>
<path d="M9.19378 18C9.8206 18 10.4318 17.6743 10.7686 17.0921C11.2705 16.2244 10.9716 15.1113 10.1039 14.6116L3.72413 10.9287C2.85416 10.4268 1.74327 10.7257 1.2436 11.5935C0.741693 12.4634 1.0406 13.5743 1.90834 14.074L8.28812 17.7569C8.57365 17.9197 8.88594 18 9.19378 18Z" fill="#4285F4"/>
<path d="M15.54 17.9999C15.8479 17.9999 16.1602 17.9219 16.4457 17.7568L22.8255 14.0739L18.3797 12.4455L14.6299 14.6093C13.7599 15.1112 13.4632 16.2221 13.9652 17.0898C14.2998 17.6743 14.911 17.9999 15.54 17.9999Z" fill="#FBBC04"/>
<path d="M21.9155 14.3171C22.5423 14.3171 23.1535 13.9914 23.4903 13.4092C23.9922 12.5415 23.6933 11.4284 22.8256 10.9287L16.4458 7.24583C15.5758 6.74392 14.465 7.04283 13.9653 7.91057C13.4634 8.77831 13.7623 9.89142 14.63 10.3911L21.0098 14.074C21.2953 14.2368 21.6076 14.3171 21.9155 14.3171Z" fill="#089D57"/>
</svg>
