<svg width="147" height="164" viewBox="0 0 147 164" fill="none" xmlns="http://www.w3.org/2000/svg">
<path d="M102.319 59.6613C102.319 68.3206 95.2513 75.3404 86.5325 75.3404C77.8136 75.3404 70.7456 68.3206 70.7456 59.6613C70.7456 51.002 77.8136 43.9822 86.5325 43.9822C95.2513 43.9822 102.319 51.002 102.319 59.6613Z" fill="#FFC131"/>
<path d="M75.8558 103.708C75.8558 112.367 68.7878 119.387 60.0689 119.387C51.3501 119.387 44.2821 112.367 44.2821 103.708C44.2821 95.0484 51.3501 88.0287 60.0689 88.0287C68.7878 88.0287 75.8558 95.0484 75.8558 103.708Z" fill="#24C8DB"/>
<path d="M48.04 45.5474C20.7948 51.0763 0.297852 75.0147 0.297852 103.708C0.297852 136.493 27.0583 163.071 60.0689 163.071C86.8892 163.071 109.584 145.526 117.152 121.363C110.007 124.86 102.274 127.124 94.2867 128.018C86.6541 138.596 74.172 145.488 60.0689 145.488C36.8355 145.488 18.001 126.783 18.001 103.708C18.001 85.6841 29.4922 70.326 45.5951 64.4658C44.9419 58.0996 45.7568 51.6129 48.04 45.5474Z" fill="#24C8DB"/>
<path fill-rule="evenodd" clip-rule="evenodd" d="M98.5614 117.822C125.807 112.293 146.304 88.3544 146.304 59.6613C146.304 26.876 119.543 0.29834 86.5326 0.29834C59.7123 0.29834 37.0179 17.8427 29.4494 42.0063C36.5943 38.509 44.3276 36.2449 52.3149 35.3514C59.9474 24.7731 72.4296 17.8807 86.5326 17.8807C109.766 17.8807 128.601 36.5865 128.601 59.6613C128.601 77.6851 117.109 93.0432 101.006 98.9034C101.659 105.27 100.845 111.756 98.5614 117.822Z" fill="#FFC131"/>
</svg>
